<?xml version="1.0" encoding="UTF-8" standalone="no"?>
<!DOCTYPE svg PUBLIC "-//W3C//DTD SVG 1.1//EN"
 "http://www.w3.org/Graphics/SVG/1.1/DTD/svg11.dtd">
<!-- Generated by graphviz version 2.40.1 (20161225.0304)
 -->
<!-- Title: G Pages: 1 -->
<svg width="405pt" height="94pt"
 viewBox="0.00 0.00 404.77 93.80" xmlns="http://www.w3.org/2000/svg" xmlns:xlink="http://www.w3.org/1999/xlink">
<g id="graph0" class="graph" transform="scale(1 1) rotate(0) translate(4 89.8)">
<title>G</title>
<polygon fill="#ffffff" stroke="transparent" points="-4,4 -4,-89.8 400.7658,-89.8 400.7658,4 -4,4"/>
<!-- app.js -->
<g id="node1" class="node">
<title>app.js</title>
<path fill="#e5e5e5" stroke="#000000" d="M45.9268,-85.7008C45.9268,-85.7008 13.2282,-85.7008 13.2282,-85.7008 9.1279,-85.7008 5.0277,-81.6005 5.0277,-77.5003 5.0277,-77.5003 5.0277,-69.2997 5.0277,-69.2997 5.0277,-65.1995 9.1279,-61.0992 13.2282,-61.0992 13.2282,-61.0992 45.9268,-61.0992 45.9268,-61.0992 50.0271,-61.0992 54.1273,-65.1995 54.1273,-69.2997 54.1273,-69.2997 54.1273,-77.5003 54.1273,-77.5003 54.1273,-81.6005 50.0271,-85.7008 45.9268,-85.7008"/>
<text text-anchor="middle" x="29.5775" y="-69.2" font-family="Times,serif" font-size="14.00" fill="#000000">app.js</text>
</g>
<!-- lib/init.js -->
<g id="node3" class="node">
<title>lib/init.js</title>
<path fill="#e5e5e5" stroke="#000000" d="M153.2229,-54.7008C153.2229,-54.7008 103.2659,-54.7008 103.2659,-54.7008 99.1656,-54.7008 95.0654,-50.6005 95.0654,-46.5003 95.0654,-46.5003 95.0654,-38.2997 95.0654,-38.2997 95.0654,-34.1995 99.1656,-30.0992 103.2659,-30.0992 103.2659,-30.0992 153.2229,-30.0992 153.2229,-30.0992 157.3232,-30.0992 161.4234,-34.1995 161.4234,-38.2997 161.4234,-38.2997 161.4234,-46.5003 161.4234,-46.5003 161.4234,-50.6005 157.3232,-54.7008 153.2229,-54.7008"/>
<text text-anchor="middle" x="128.2444" y="-38.2" font-family="Times,serif" font-size="14.00" fill="#000000">lib/init.js</text>
</g>
<!-- app.js&#45;&gt;lib/init.js -->
<g id="edge1" class="edge">
<title>app.js&#45;&gt;lib/init.js</title>
<path fill="none" stroke="#000000" d="M54.2208,-65.6574C63.6602,-62.6916 74.7246,-59.2153 85.3793,-55.8677"/>
<polygon fill="#000000" stroke="#000000" points="86.4996,-59.1845 94.9907,-52.8479 84.4014,-52.5063 86.4996,-59.1845"/>
</g>
<!-- agent.js -->
<g id="node2" class="node">
<title>agent.js</title>
<path fill="#e5e5e5" stroke="#000000" d="M51.0322,-24.7008C51.0322,-24.7008 8.1228,-24.7008 8.1228,-24.7008 4.0226,-24.7008 -.0777,-20.6005 -.0777,-16.5003 -.0777,-16.5003 -.0777,-8.2997 -.0777,-8.2997 -.0777,-4.1995 4.0226,-.0992 8.1228,-.0992 8.1228,-.0992 51.0322,-.0992 51.0322,-.0992 55.1324,-.0992 59.2327,-4.1995 59.2327,-8.2997 59.2327,-8.2997 59.2327,-16.5003 59.2327,-16.5003 59.2327,-20.6005 55.1324,-24.7008 51.0322,-24.7008"/>
<text text-anchor="middle" x="29.5775" y="-8.2" font-family="Times,serif" font-size="14.00" fill="#000000">agent.js</text>
</g>
<!-- agent.js&#45;&gt;lib/init.js -->
<g id="edge2" class="edge">
<title>agent.js&#45;&gt;lib/init.js</title>
<path fill="none" stroke="#000000" d="M59.1808,-21.401C67.3468,-23.8839 76.3763,-26.6293 85.1393,-29.2938"/>
<polygon fill="#000000" stroke="#000000" points="84.2739,-32.6888 94.8596,-32.2493 86.3103,-25.9915 84.2739,-32.6888"/>
</g>
<!-- lib/watcher.js -->
<g id="node4" class="node">
<title>lib/watcher.js</title>
<path fill="#e5e5e5" stroke="#000000" d="M280.8464,-54.7008C280.8464,-54.7008 205.6298,-54.7008 205.6298,-54.7008 201.5296,-54.7008 197.4293,-50.6005 197.4293,-46.5003 197.4293,-46.5003 197.4293,-38.2997 197.4293,-38.2997 197.4293,-34.1995 201.5296,-30.0992 205.6298,-30.0992 205.6298,-30.0992 280.8464,-30.0992 280.8464,-30.0992 284.9466,-30.0992 289.0469,-34.1995 289.0469,-38.2997 289.0469,-38.2997 289.0469,-46.5003 289.0469,-46.5003 289.0469,-50.6005 284.9466,-54.7008 280.8464,-54.7008"/>
<text text-anchor="middle" x="243.2381" y="-38.2" font-family="Times,serif" font-size="14.00" fill="#000000">lib/watcher.js</text>
</g>
<!-- lib/init.js&#45;&gt;lib/watcher.js -->
<g id="edge3" class="edge">
<title>lib/init.js&#45;&gt;lib/watcher.js</title>
<path fill="none" stroke="#000000" d="M161.5053,-42.4C169.5149,-42.4 178.2926,-42.4 187.0305,-42.4"/>
<polygon fill="#000000" stroke="#000000" points="187.2215,-45.9001 197.2214,-42.4 187.2214,-38.9001 187.2215,-45.9001"/>
</g>
<!-- lib/utils.js -->
<g id="node5" class="node">
<title>lib/utils.js</title>
<path fill="#e5e5e5" stroke="#000000" d="M388.378,-54.7008C388.378,-54.7008 333.5302,-54.7008 333.5302,-54.7008 329.43,-54.7008 325.3297,-50.6005 325.3297,-46.5003 325.3297,-46.5003 325.3297,-38.2997 325.3297,-38.2997 325.3297,-34.1995 329.43,-30.0992 333.5302,-30.0992 333.5302,-30.0992 388.378,-30.0992 388.378,-30.0992 392.4782,-30.0992 396.5785,-34.1995 396.5785,-38.2997 396.5785,-38.2997 396.5785,-46.5003 396.5785,-46.5003 396.5785,-50.6005 392.4782,-54.7008 388.378,-54.7008"/>
<text text-anchor="middle" x="360.9541" y="-38.2" font-family="Times,serif" font-size="14.00" fill="#000000">lib/utils.js</text>
</g>
<!-- lib/watcher.js&#45;&gt;lib/utils.js -->
<g id="edge4" class="edge">
<title>lib/watcher.js&#45;&gt;lib/utils.js</title>
<path fill="none" stroke="#000000" d="M289.0872,-42.4C297.6238,-42.4 306.5446,-42.4 315.0818,-42.4"/>
<polygon fill="#000000" stroke="#000000" points="315.2535,-45.9001 325.2535,-42.4 315.2535,-38.9001 315.2535,-45.9001"/>
</g>
</g>
</svg>
