<svg width="100%" viewBox="0 0 595 241" xmlns="http://www.w3.org/2000/svg" xmlns:xlink="http://www.w3.org/1999/xlink">
<g id="graph0" class="graph" transform="scale(1 1) rotate(0) translate(4 236.4)">

<polygon fill="#ffffff" stroke="transparent" points="-4,4 -4,-236.4 590.2932,-236.4 590.2932,4 -4,4"></polygon>
<text text-anchor="middle" x="293.1466" y="-214" font-family="Roboto Condensed, sans-serif" font-size="16.00" fill="#000000">egg-watcher</text>
<!-- egg&#45;watcher@3.1.0 -->
<g id="node1" class="node module-egg_watcher maintainer-atian25 maintainer-dead_horse maintainer-eggjs maintainer-fengmk2 maintainer-luckydrq maintainer-popomore maintainer-shaoshuai0102 license-unspecified">

<path fill="none" stroke="#000000" d="M86.2585,-94.3011C86.2585,-94.3011 6.2246,-94.3011 6.2246,-94.3011 2.9909,-94.3011 -.2428,-91.0674 -.2428,-87.8337 -.2428,-87.8337 -.2428,-81.3663 -.2428,-81.3663 -.2428,-78.1326 2.9909,-74.8989 6.2246,-74.8989 6.2246,-74.8989 86.2585,-74.8989 86.2585,-74.8989 89.4922,-74.8989 92.7259,-78.1326 92.7259,-81.3663 92.7259,-81.3663 92.7259,-87.8337 92.7259,-87.8337 92.7259,-91.0674 89.4922,-94.3011 86.2585,-94.3011"></path>
<text text-anchor="middle" x="46.2415" y="-81.3" font-family="Roboto Condensed, sans-serif" font-size="11.00" fill="#000000">egg-watcher@3.1.0</text>
</g>
<!-- camelcase@5.3.1 -->
<g id="node2" class="node module-camelcase maintainer-sindresorhus license-mit">

<path fill="none" stroke="#000000" d="M205.4948,-132.3011C205.4948,-132.3011 134.7904,-132.3011 134.7904,-132.3011 131.5567,-132.3011 128.323,-129.0674 128.323,-125.8337 128.323,-125.8337 128.323,-119.3663 128.323,-119.3663 128.323,-116.1326 131.5567,-112.8989 134.7904,-112.8989 134.7904,-112.8989 205.4948,-112.8989 205.4948,-112.8989 208.7285,-112.8989 211.9622,-116.1326 211.9622,-119.3663 211.9622,-119.3663 211.9622,-125.8337 211.9622,-125.8337 211.9622,-129.0674 208.7285,-132.3011 205.4948,-132.3011"></path>
<text text-anchor="middle" x="170.1426" y="-119.3" font-family="Roboto Condensed, sans-serif" font-size="11.00" fill="#000000">camelcase@5.3.1</text>
</g>
<!-- egg&#45;watcher@3.1.0&#45;&gt;camelcase@5.3.1 -->
<g id="edge1" class="edge">

<path fill="none" stroke="#000000" d="M77.8276,-94.2873C93.2648,-99.0219 112.044,-104.7814 128.6243,-109.8665"></path>
<polygon fill="#000000" stroke="#000000" points="128.0275,-113.3443 138.6142,-112.9304 130.08,-106.652 128.0275,-113.3443"></polygon>
</g>
<!-- sdk&#45;base@3.6.0 -->
<g id="node3" class="node module-sdk_base maintainer-dead_horse maintainer-fengmk2 maintainer-gxcsoccer maintainer-popomore license-mit">

<path fill="none" stroke="#000000" d="M317.7558,-94.3011C317.7558,-94.3011 254.4618,-94.3011 254.4618,-94.3011 251.2281,-94.3011 247.9944,-91.0674 247.9944,-87.8337 247.9944,-87.8337 247.9944,-81.3663 247.9944,-81.3663 247.9944,-78.1326 251.2281,-74.8989 254.4618,-74.8989 254.4618,-74.8989 317.7558,-74.8989 317.7558,-74.8989 320.9895,-74.8989 324.2232,-78.1326 324.2232,-81.3663 324.2232,-81.3663 324.2232,-87.8337 324.2232,-87.8337 324.2232,-91.0674 320.9895,-94.3011 317.7558,-94.3011"></path>
<text text-anchor="middle" x="286.1088" y="-81.3" font-family="Roboto Condensed, sans-serif" font-size="11.00" fill="#000000">sdk-base@3.6.0</text>
</g>
<!-- egg&#45;watcher@3.1.0&#45;&gt;sdk&#45;base@3.6.0 -->
<g id="edge2" class="edge">

<path fill="none" stroke="#000000" d="M92.4904,-84.6C134.2454,-84.6 195.455,-84.6 237.8269,-84.6"></path>
<polygon fill="#000000" stroke="#000000" points="237.9023,-88.1001 247.9023,-84.6 237.9022,-81.1001 237.9023,-88.1001"></polygon>
</g>
<!-- wt@1.2.0 -->
<g id="node4" class="node module-wt maintainer-fengmk2 license-mit">

<path fill="none" stroke="#000000" d="M188.3031,-56.3011C188.3031,-56.3011 151.9821,-56.3011 151.9821,-56.3011 148.7484,-56.3011 145.5147,-53.0674 145.5147,-49.8337 145.5147,-49.8337 145.5147,-43.3663 145.5147,-43.3663 145.5147,-40.1326 148.7484,-36.8989 151.9821,-36.8989 151.9821,-36.8989 188.3031,-36.8989 188.3031,-36.8989 191.5368,-36.8989 194.7705,-40.1326 194.7705,-43.3663 194.7705,-43.3663 194.7705,-49.8337 194.7705,-49.8337 194.7705,-53.0674 191.5368,-56.3011 188.3031,-56.3011"></path>
<text text-anchor="middle" x="170.1426" y="-43.3" font-family="Roboto Condensed, sans-serif" font-size="11.00" fill="#000000">wt@1.2.0</text>
</g>
<!-- egg&#45;watcher@3.1.0&#45;&gt;wt@1.2.0 -->
<g id="edge3" class="edge">

<path fill="none" stroke="#000000" d="M77.8276,-74.9127C95.4919,-69.4951 117.532,-62.7355 135.6464,-57.1799"></path>
<polygon fill="#000000" stroke="#000000" points="136.7191,-60.5118 145.2533,-54.2335 134.6666,-53.8195 136.7191,-60.5118"></polygon>
</g>
<!-- is&#45;type&#45;of@1.2.1 -->
<g id="node5" class="node module-is_type_of maintainer-dead_horse maintainer-fengmk2 license-mit">

<path fill="none" stroke="#000000" d="M439.0559,-168.3011C439.0559,-168.3011 371.2101,-168.3011 371.2101,-168.3011 367.9764,-168.3011 364.7427,-165.0674 364.7427,-161.8337 364.7427,-161.8337 364.7427,-155.3663 364.7427,-155.3663 364.7427,-152.1326 367.9764,-148.8989 371.2101,-148.8989 371.2101,-148.8989 439.0559,-148.8989 439.0559,-148.8989 442.2896,-148.8989 445.5233,-152.1326 445.5233,-155.3663 445.5233,-155.3663 445.5233,-161.8337 445.5233,-161.8337 445.5233,-165.0674 442.2896,-168.3011 439.0559,-168.3011"></path>
<text text-anchor="middle" x="405.133" y="-155.3" font-family="Roboto Condensed, sans-serif" font-size="11.00" fill="#000000">is-type-of@1.2.1</text>
</g>
<!-- sdk&#45;base@3.6.0&#45;&gt;is&#45;type&#45;of@1.2.1 -->
<g id="edge5" class="edge">

<path fill="none" stroke="#000000" d="M297.0459,-94.3168C310.997,-106.3519 336.2247,-126.9333 360.4155,-140.6 362.943,-142.0279 365.6065,-143.3993 368.3228,-144.7034"></path>
<polygon fill="#000000" stroke="#000000" points="367.0822,-147.9824 377.6405,-148.8615 369.9349,-141.59 367.0822,-147.9824"></polygon>
</g>
<!-- co@4.6.0 -->
<g id="node6" class="node module-co maintainer-tjholowaychuk maintainer-jonathanong maintainer-jongleberry license-mit">

<path fill="none" stroke="#000000" d="M422.6809,-131.3011C422.6809,-131.3011 387.5851,-131.3011 387.5851,-131.3011 384.3515,-131.3011 381.1178,-128.0674 381.1178,-124.8337 381.1178,-124.8337 381.1178,-118.3663 381.1178,-118.3663 381.1178,-115.1326 384.3515,-111.8989 387.5851,-111.8989 387.5851,-111.8989 422.6809,-111.8989 422.6809,-111.8989 425.9145,-111.8989 429.1482,-115.1326 429.1482,-118.3663 429.1482,-118.3663 429.1482,-124.8337 429.1482,-124.8337 429.1482,-128.0674 425.9145,-131.3011 422.6809,-131.3011"></path>
<text text-anchor="middle" x="405.133" y="-118.3" font-family="Roboto Condensed, sans-serif" font-size="11.00" fill="#000000">co@4.6.0</text>
</g>
<!-- sdk&#45;base@3.6.0&#45;&gt;co@4.6.0 -->
<g id="edge6" class="edge">

<path fill="none" stroke="#000000" d="M317.0703,-94.2247C333.7682,-99.4155 354.3961,-105.8279 371.489,-111.1414"></path>
<polygon fill="#000000" stroke="#000000" points="370.4998,-114.4991 381.0881,-114.1254 372.5778,-107.8146 370.4998,-114.4991"></polygon>
</g>
<!-- await&#45;first@1.0.0 -->
<g id="node7" class="node module-await_first maintainer-gxcsoccer license-mit">

<path fill="none" stroke="#000000" d="M440.4941,-94.3011C440.4941,-94.3011 369.7719,-94.3011 369.7719,-94.3011 366.5382,-94.3011 363.3046,-91.0674 363.3046,-87.8337 363.3046,-87.8337 363.3046,-81.3663 363.3046,-81.3663 363.3046,-78.1326 366.5382,-74.8989 369.7719,-74.8989 369.7719,-74.8989 440.4941,-74.8989 440.4941,-74.8989 443.7278,-74.8989 446.9614,-78.1326 446.9614,-81.3663 446.9614,-81.3663 446.9614,-87.8337 446.9614,-87.8337 446.9614,-91.0674 443.7278,-94.3011 440.4941,-94.3011"></path>
<text text-anchor="middle" x="405.133" y="-81.3" font-family="Roboto Condensed, sans-serif" font-size="11.00" fill="#000000">await-first@1.0.0</text>
</g>
<!-- sdk&#45;base@3.6.0&#45;&gt;await&#45;first@1.0.0 -->
<g id="edge7" class="edge">

<path fill="none" stroke="#000000" d="M324.424,-84.6C333.507,-84.6 343.3478,-84.6 352.9318,-84.6"></path>
<polygon fill="#000000" stroke="#000000" points="353.1826,-88.1001 363.1826,-84.6 353.1826,-81.1001 353.1826,-88.1001"></polygon>
</g>
<!-- await&#45;event@2.1.0 -->
<g id="node9" class="node module-await_event maintainer-coderhaoxin maintainer-dead_horse maintainer-fengmk2 maintainer-jongleberry license-mit">

<path fill="none" stroke="#000000" d="M443.6017,-57.3011C443.6017,-57.3011 366.6643,-57.3011 366.6643,-57.3011 363.4306,-57.3011 360.1969,-54.0674 360.1969,-50.8337 360.1969,-50.8337 360.1969,-44.3663 360.1969,-44.3663 360.1969,-41.1326 363.4306,-37.8989 366.6643,-37.8989 366.6643,-37.8989 443.6017,-37.8989 443.6017,-37.8989 446.8354,-37.8989 450.0691,-41.1326 450.0691,-44.3663 450.0691,-44.3663 450.0691,-50.8337 450.0691,-50.8337 450.0691,-54.0674 446.8354,-57.3011 443.6017,-57.3011"></path>
<text text-anchor="middle" x="405.133" y="-44.3" font-family="Roboto Condensed, sans-serif" font-size="11.00" fill="#000000">await-event@2.1.0</text>
</g>
<!-- sdk&#45;base@3.6.0&#45;&gt;await&#45;event@2.1.0 -->
<g id="edge9" class="edge">

<path fill="none" stroke="#000000" d="M317.0703,-74.9753C331.422,-70.5139 348.6768,-65.15 364.0952,-60.3571"></path>
<polygon fill="#000000" stroke="#000000" points="365.4028,-63.6159 373.913,-57.3051 363.3248,-56.9314 365.4028,-63.6159"></polygon>
</g>
<!-- wt@1.2.0&#45;&gt;sdk&#45;base@3.6.0 -->
<g id="edge4" class="edge">

<path fill="none" stroke="#000000" d="M194.736,-54.6588C209.8533,-59.6125 229.564,-66.0713 246.8069,-71.7215"></path>
<polygon fill="#000000" stroke="#000000" points="246.028,-75.1493 256.6207,-74.9373 248.2077,-68.4973 246.028,-75.1493"></polygon>
</g>
<!-- debug@2.6.9 -->
<g id="node8" class="node module-debug maintainer-thebigredgeek maintainer-kolban maintainer-tootallnate maintainer-tjholowaychuk license-mit">

<path fill="none" stroke="#000000" d="M312.1542,-56.3011C312.1542,-56.3011 260.0634,-56.3011 260.0634,-56.3011 256.8297,-56.3011 253.596,-53.0674 253.596,-49.8337 253.596,-49.8337 253.596,-43.3663 253.596,-43.3663 253.596,-40.1326 256.8297,-36.8989 260.0634,-36.8989 260.0634,-36.8989 312.1542,-36.8989 312.1542,-36.8989 315.3879,-36.8989 318.6216,-40.1326 318.6216,-43.3663 318.6216,-43.3663 318.6216,-49.8337 318.6216,-49.8337 318.6216,-53.0674 315.3879,-56.3011 312.1542,-56.3011"></path>
<text text-anchor="middle" x="286.1088" y="-43.3" font-family="Roboto Condensed, sans-serif" font-size="11.00" fill="#000000">debug@2.6.9</text>
</g>
<!-- wt@1.2.0&#45;&gt;debug@2.6.9 -->
<g id="edge8" class="edge">

<path fill="none" stroke="#000000" d="M194.736,-46.6C208.6981,-46.6 226.5784,-46.6 242.8139,-46.6"></path>
<polygon fill="#000000" stroke="#000000" points="243.1878,-50.1001 253.1877,-46.6 243.1877,-43.1001 243.1878,-50.1001"></polygon>
</g>
<!-- ndir@0.1.5 -->
<g id="node14" class="node module-ndir maintainer-fengmk2 license-mit">

<path fill="none" stroke="#000000" d="M307.4903,-19.3011C307.4903,-19.3011 264.7273,-19.3011 264.7273,-19.3011 261.4936,-19.3011 258.2599,-16.0674 258.2599,-12.8337 258.2599,-12.8337 258.2599,-6.3663 258.2599,-6.3663 258.2599,-3.1326 261.4936,.1011 264.7273,.1011 264.7273,.1011 307.4903,.1011 307.4903,.1011 310.724,.1011 313.9577,-3.1326 313.9577,-6.3663 313.9577,-6.3663 313.9577,-12.8337 313.9577,-12.8337 313.9577,-16.0674 310.724,-19.3011 307.4903,-19.3011"></path>
<text text-anchor="middle" x="286.1088" y="-6.3" font-family="Roboto Condensed, sans-serif" font-size="11.00" fill="#000000">ndir@0.1.5</text>
</g>
<!-- wt@1.2.0&#45;&gt;ndir@0.1.5 -->
<g id="edge14" class="edge">

<path fill="none" stroke="#000000" d="M194.736,-38.7533C210.1868,-33.8236 230.4358,-27.3629 247.9443,-21.7767"></path>
<polygon fill="#000000" stroke="#000000" points="249.4163,-24.9809 257.8793,-18.6069 247.2886,-18.3122 249.4163,-24.9809"></polygon>
</g>
<!-- is&#45;class&#45;hotfix@0.0.6 -->
<g id="node11" class="node module-is_class_hotfix maintainer-fengmk2 license-mit">

<path fill="none" stroke="#000000" d="M580.0482,-205.3011C580.0482,-205.3011 492.0955,-205.3011 492.0955,-205.3011 488.8619,-205.3011 485.6282,-202.0674 485.6282,-198.8337 485.6282,-198.8337 485.6282,-192.3663 485.6282,-192.3663 485.6282,-189.1326 488.8619,-185.8989 492.0955,-185.8989 492.0955,-185.8989 580.0482,-185.8989 580.0482,-185.8989 583.2818,-185.8989 586.5155,-189.1326 586.5155,-192.3663 586.5155,-192.3663 586.5155,-198.8337 586.5155,-198.8337 586.5155,-202.0674 583.2818,-205.3011 580.0482,-205.3011"></path>
<text text-anchor="middle" x="536.0718" y="-192.3" font-family="Roboto Condensed, sans-serif" font-size="11.00" fill="#000000">is-class-hotfix@0.0.6</text>
</g>
<!-- is&#45;type&#45;of@1.2.1&#45;&gt;is&#45;class&#45;hotfix@0.0.6 -->
<g id="edge11" class="edge">

<path fill="none" stroke="#000000" d="M439.1938,-168.2247C455.2829,-172.7711 474.6886,-178.2546 491.893,-183.1162"></path>
<polygon fill="#000000" stroke="#000000" points="491.1517,-186.5437 501.7267,-185.8949 493.0553,-179.8075 491.1517,-186.5437"></polygon>
</g>
<!-- core&#45;util&#45;is@1.0.2 -->
<g id="node12" class="node module-core_util_is maintainer-isaacs license-mit">

<path fill="none" stroke="#000000" d="M572.9923,-168.3011C572.9923,-168.3011 499.1514,-168.3011 499.1514,-168.3011 495.9178,-168.3011 492.6841,-165.0674 492.6841,-161.8337 492.6841,-161.8337 492.6841,-155.3663 492.6841,-155.3663 492.6841,-152.1326 495.9178,-148.8989 499.1514,-148.8989 499.1514,-148.8989 572.9923,-148.8989 572.9923,-148.8989 576.2259,-148.8989 579.4596,-152.1326 579.4596,-155.3663 579.4596,-155.3663 579.4596,-161.8337 579.4596,-161.8337 579.4596,-165.0674 576.2259,-168.3011 572.9923,-168.3011"></path>
<text text-anchor="middle" x="536.0718" y="-155.3" font-family="Roboto Condensed, sans-serif" font-size="11.00" fill="#000000">core-util-is@1.0.2</text>
</g>
<!-- is&#45;type&#45;of@1.2.1&#45;&gt;core&#45;util&#45;is@1.0.2 -->
<g id="edge12" class="edge">

<path fill="none" stroke="#000000" d="M445.8451,-158.6C457.458,-158.6 470.2896,-158.6 482.5435,-158.6"></path>
<polygon fill="#000000" stroke="#000000" points="482.6615,-162.1001 492.6615,-158.6 482.6615,-155.1001 482.6615,-162.1001"></polygon>
</g>
<!-- isstream@0.1.2 -->
<g id="node13" class="node module-isstream maintainer-rvagg license-mit">

<path fill="none" stroke="#000000" d="M566.8889,-131.3011C566.8889,-131.3011 505.2548,-131.3011 505.2548,-131.3011 502.0211,-131.3011 498.7874,-128.0674 498.7874,-124.8337 498.7874,-124.8337 498.7874,-118.3663 498.7874,-118.3663 498.7874,-115.1326 502.0211,-111.8989 505.2548,-111.8989 505.2548,-111.8989 566.8889,-111.8989 566.8889,-111.8989 570.1226,-111.8989 573.3563,-115.1326 573.3563,-118.3663 573.3563,-118.3663 573.3563,-124.8337 573.3563,-124.8337 573.3563,-128.0674 570.1226,-131.3011 566.8889,-131.3011"></path>
<text text-anchor="middle" x="536.0718" y="-118.3" font-family="Roboto Condensed, sans-serif" font-size="11.00" fill="#000000">isstream@0.1.2</text>
</g>
<!-- is&#45;type&#45;of@1.2.1&#45;&gt;isstream@0.1.2 -->
<g id="edge13" class="edge">

<path fill="none" stroke="#000000" d="M439.1938,-148.9753C455.2829,-144.4289 474.6886,-138.9454 491.893,-134.0838"></path>
<polygon fill="#000000" stroke="#000000" points="493.0553,-137.3925 501.7267,-131.3051 491.1517,-130.6563 493.0553,-137.3925"></polygon>
</g>
<!-- ee&#45;first@1.1.1 -->
<g id="node15" class="node module-ee_first maintainer-jongleberry maintainer-dougwilson license-mit">

<path fill="none" stroke="#000000" d="M564.3781,-94.3011C564.3781,-94.3011 507.7656,-94.3011 507.7656,-94.3011 504.5319,-94.3011 501.2982,-91.0674 501.2982,-87.8337 501.2982,-87.8337 501.2982,-81.3663 501.2982,-81.3663 501.2982,-78.1326 504.5319,-74.8989 507.7656,-74.8989 507.7656,-74.8989 564.3781,-74.8989 564.3781,-74.8989 567.6118,-74.8989 570.8455,-78.1326 570.8455,-81.3663 570.8455,-81.3663 570.8455,-87.8337 570.8455,-87.8337 570.8455,-91.0674 567.6118,-94.3011 564.3781,-94.3011"></path>
<text text-anchor="middle" x="536.0718" y="-81.3" font-family="Roboto Condensed, sans-serif" font-size="11.00" fill="#000000">ee-first@1.1.1</text>
</g>
<!-- await&#45;first@1.0.0&#45;&gt;ee&#45;first@1.1.1 -->
<g id="edge15" class="edge">

<path fill="none" stroke="#000000" d="M446.9229,-84.6C461.0158,-84.6 476.8005,-84.6 491.1266,-84.6"></path>
<polygon fill="#000000" stroke="#000000" points="491.2554,-88.1001 501.2553,-84.6 491.2553,-81.1001 491.2554,-88.1001"></polygon>
</g>
<!-- ms@2.0.0 -->
<g id="node10" class="node module-ms maintainer-leo maintainer-rauchg license-mit">

<path fill="none" stroke="#000000" d="M424.1303,-20.3011C424.1303,-20.3011 386.1357,-20.3011 386.1357,-20.3011 382.902,-20.3011 379.6683,-17.0674 379.6683,-13.8337 379.6683,-13.8337 379.6683,-7.3663 379.6683,-7.3663 379.6683,-4.1326 382.902,-.8989 386.1357,-.8989 386.1357,-.8989 424.1303,-.8989 424.1303,-.8989 427.364,-.8989 430.5977,-4.1326 430.5977,-7.3663 430.5977,-7.3663 430.5977,-13.8337 430.5977,-13.8337 430.5977,-17.0674 427.364,-20.3011 424.1303,-20.3011"></path>
<text text-anchor="middle" x="405.133" y="-7.3" font-family="Roboto Condensed, sans-serif" font-size="11.00" fill="#000000">ms@2.0.0</text>
</g>
<!-- debug@2.6.9&#45;&gt;ms@2.0.0 -->
<g id="edge10" class="edge">

<path fill="none" stroke="#000000" d="M318.0051,-36.9527C333.9721,-32.1233 353.3468,-26.2632 369.7678,-21.2965"></path>
<polygon fill="#000000" stroke="#000000" points="370.9952,-24.582 379.5536,-18.3367 368.9686,-17.8817 370.9952,-24.582"></polygon>
</g>
</g>
</svg>